%TF.GenerationSoftware,KiCad,Pcbnew,8.0.8*%
%TF.CreationDate,2025-02-18T19:17:03-06:00*%
%TF.ProjectId,VW_ServMode_4taGen,56575f53-6572-4764-9d6f-64655f347461,rev?*%
%TF.SameCoordinates,Original*%
%TF.FileFunction,Paste,Top*%
%TF.FilePolarity,Positive*%
%FSLAX46Y46*%
G04 Gerber Fmt 4.6, Leading zero omitted, Abs format (unit mm)*
G04 Created by KiCad (PCBNEW 8.0.8) date 2025-02-18 19:17:03*
%MOMM*%
%LPD*%
G01*
G04 APERTURE LIST*
G04 Aperture macros list*
%AMRoundRect*
0 Rectangle with rounded corners*
0 $1 Rounding radius*
0 $2 $3 $4 $5 $6 $7 $8 $9 X,Y pos of 4 corners*
0 Add a 4 corners polygon primitive as box body*
4,1,4,$2,$3,$4,$5,$6,$7,$8,$9,$2,$3,0*
0 Add four circle primitives for the rounded corners*
1,1,$1+$1,$2,$3*
1,1,$1+$1,$4,$5*
1,1,$1+$1,$6,$7*
1,1,$1+$1,$8,$9*
0 Add four rect primitives between the rounded corners*
20,1,$1+$1,$2,$3,$4,$5,0*
20,1,$1+$1,$4,$5,$6,$7,0*
20,1,$1+$1,$6,$7,$8,$9,0*
20,1,$1+$1,$8,$9,$2,$3,0*%
G04 Aperture macros list end*
%ADD10RoundRect,0.162500X-0.617500X-0.162500X0.617500X-0.162500X0.617500X0.162500X-0.617500X0.162500X0*%
%ADD11RoundRect,0.230000X0.375000X-0.230000X0.375000X0.230000X-0.375000X0.230000X-0.375000X-0.230000X0*%
%ADD12RoundRect,0.150000X0.150000X-0.825000X0.150000X0.825000X-0.150000X0.825000X-0.150000X-0.825000X0*%
%ADD13RoundRect,0.200000X-0.200000X-0.275000X0.200000X-0.275000X0.200000X0.275000X-0.200000X0.275000X0*%
%ADD14RoundRect,0.200000X-0.275000X0.200000X-0.275000X-0.200000X0.275000X-0.200000X0.275000X0.200000X0*%
%ADD15R,0.700000X1.600000*%
%ADD16R,1.400000X1.600000*%
%ADD17R,1.400000X2.200000*%
%ADD18R,1.800000X1.400000*%
%ADD19RoundRect,0.225000X-0.225000X-0.250000X0.225000X-0.250000X0.225000X0.250000X-0.225000X0.250000X0*%
%ADD20RoundRect,0.200000X0.200000X0.275000X-0.200000X0.275000X-0.200000X-0.275000X0.200000X-0.275000X0*%
%ADD21RoundRect,0.225000X-0.250000X0.225000X-0.250000X-0.225000X0.250000X-0.225000X0.250000X0.225000X0*%
%ADD22RoundRect,0.075000X-0.521491X0.415425X0.415425X-0.521491X0.521491X-0.415425X-0.415425X0.521491X0*%
%ADD23RoundRect,0.075000X-0.521491X-0.415425X-0.415425X-0.521491X0.521491X0.415425X0.415425X0.521491X0*%
%ADD24RoundRect,0.225000X0.250000X-0.225000X0.250000X0.225000X-0.250000X0.225000X-0.250000X-0.225000X0*%
%ADD25RoundRect,0.200000X0.275000X-0.200000X0.275000X0.200000X-0.275000X0.200000X-0.275000X-0.200000X0*%
%ADD26RoundRect,0.243750X-0.243750X-0.456250X0.243750X-0.456250X0.243750X0.456250X-0.243750X0.456250X0*%
%ADD27RoundRect,0.162500X0.162500X-0.617500X0.162500X0.617500X-0.162500X0.617500X-0.162500X-0.617500X0*%
%ADD28R,0.600000X1.240000*%
%ADD29R,0.300000X1.240000*%
%ADD30RoundRect,0.150000X0.150000X-0.587500X0.150000X0.587500X-0.150000X0.587500X-0.150000X-0.587500X0*%
%ADD31RoundRect,0.225000X0.225000X0.250000X-0.225000X0.250000X-0.225000X-0.250000X0.225000X-0.250000X0*%
%ADD32RoundRect,0.375000X0.625000X0.375000X-0.625000X0.375000X-0.625000X-0.375000X0.625000X-0.375000X0*%
%ADD33RoundRect,0.500000X0.500000X1.400000X-0.500000X1.400000X-0.500000X-1.400000X0.500000X-1.400000X0*%
%ADD34R,1.200000X3.500000*%
G04 APERTURE END LIST*
D10*
%TO.C,U3*%
X203950000Y-50450000D03*
X203950000Y-51400000D03*
X203950000Y-52350000D03*
X201250000Y-52350000D03*
X201250000Y-51400000D03*
X201250000Y-50450000D03*
%TD*%
D11*
%TO.C,U1*%
X194000000Y-60300000D03*
X195500000Y-60300000D03*
X194000000Y-59160000D03*
X195500000Y-59160000D03*
D12*
X192845000Y-62205000D03*
X194115000Y-62205000D03*
X195385000Y-62205000D03*
X196655000Y-62205000D03*
X196655000Y-57255000D03*
X195385000Y-57255000D03*
X194115000Y-57255000D03*
X192845000Y-57255000D03*
%TD*%
D13*
%TO.C,R21*%
X158400000Y-51700000D03*
X160050000Y-51700000D03*
%TD*%
D14*
%TO.C,RC1*%
X147000000Y-53375000D03*
X147000000Y-55025000D03*
%TD*%
D15*
%TO.C,J10*%
X151270000Y-64700000D03*
X150170000Y-64700000D03*
X149070000Y-64700000D03*
X147970000Y-64700000D03*
X146870000Y-64700000D03*
X145770000Y-64700000D03*
X144670000Y-64700000D03*
X143570000Y-64700000D03*
X142470000Y-64700000D03*
D16*
X141170000Y-65300000D03*
D17*
X141170000Y-74800000D03*
X156870000Y-74800000D03*
D18*
X155970000Y-65200000D03*
%TD*%
D13*
%TO.C,R27*%
X154900000Y-59400000D03*
X156550000Y-59400000D03*
%TD*%
D19*
%TO.C,C18*%
X154950000Y-61100000D03*
X156500000Y-61100000D03*
%TD*%
D20*
%TO.C,R16*%
X161425000Y-78400000D03*
X159775000Y-78400000D03*
%TD*%
D13*
%TO.C,R14*%
X197250000Y-37200000D03*
X198900000Y-37200000D03*
%TD*%
%TO.C,R30*%
X204050000Y-39300000D03*
X205700000Y-39300000D03*
%TD*%
%TO.C,R20*%
X183775000Y-78400000D03*
X185425000Y-78400000D03*
%TD*%
D19*
%TO.C,C3*%
X204100000Y-28900000D03*
X205650000Y-28900000D03*
%TD*%
D13*
%TO.C,R24*%
X188600000Y-30300000D03*
X190250000Y-30300000D03*
%TD*%
D21*
%TO.C,C6*%
X138200000Y-53400000D03*
X138200000Y-54950000D03*
%TD*%
D13*
%TO.C,R15*%
X197250000Y-40600000D03*
X198900000Y-40600000D03*
%TD*%
D22*
%TO.C,U5*%
X172801212Y-54112124D03*
X172447658Y-54465678D03*
X172094105Y-54819231D03*
X171740551Y-55172785D03*
X171386998Y-55526338D03*
X171033445Y-55879891D03*
X170679891Y-56233445D03*
X170326338Y-56586998D03*
X169972785Y-56940551D03*
X169619231Y-57294105D03*
X169265678Y-57647658D03*
X168912124Y-58001212D03*
D23*
X168912124Y-59998788D03*
X169265678Y-60352342D03*
X169619231Y-60705895D03*
X169972785Y-61059449D03*
X170326338Y-61413002D03*
X170679891Y-61766555D03*
X171033445Y-62120109D03*
X171386998Y-62473662D03*
X171740551Y-62827215D03*
X172094105Y-63180769D03*
X172447658Y-63534322D03*
X172801212Y-63887876D03*
D22*
X174798788Y-63887876D03*
X175152342Y-63534322D03*
X175505895Y-63180769D03*
X175859449Y-62827215D03*
X176213002Y-62473662D03*
X176566555Y-62120109D03*
X176920109Y-61766555D03*
X177273662Y-61413002D03*
X177627215Y-61059449D03*
X177980769Y-60705895D03*
X178334322Y-60352342D03*
X178687876Y-59998788D03*
D23*
X178687876Y-58001212D03*
X178334322Y-57647658D03*
X177980769Y-57294105D03*
X177627215Y-56940551D03*
X177273662Y-56586998D03*
X176920109Y-56233445D03*
X176566555Y-55879891D03*
X176213002Y-55526338D03*
X175859449Y-55172785D03*
X175505895Y-54819231D03*
X175152342Y-54465678D03*
X174798788Y-54112124D03*
%TD*%
D14*
%TO.C,R28*%
X172800000Y-46875000D03*
X172800000Y-48525000D03*
%TD*%
D24*
%TO.C,C19*%
X158500000Y-57650000D03*
X158500000Y-56100000D03*
%TD*%
D25*
%TO.C,R29*%
X174800000Y-48525000D03*
X174800000Y-46875000D03*
%TD*%
D13*
%TO.C,R7*%
X197300000Y-47700000D03*
X198950000Y-47700000D03*
%TD*%
D21*
%TO.C,C5*%
X136400000Y-53400000D03*
X136400000Y-54950000D03*
%TD*%
D19*
%TO.C,C4*%
X204100000Y-30600000D03*
X205650000Y-30600000D03*
%TD*%
D16*
%TO.C,SW2*%
X178050000Y-49900000D03*
X178050000Y-41900000D03*
X182550000Y-49900000D03*
X182550000Y-41900000D03*
%TD*%
D24*
%TO.C,C10*%
X212700000Y-52775000D03*
X212700000Y-51225000D03*
%TD*%
%TO.C,C21*%
X172800000Y-44875000D03*
X172800000Y-43325000D03*
%TD*%
D20*
%TO.C,R6*%
X200925000Y-57300000D03*
X199275000Y-57300000D03*
%TD*%
D14*
%TO.C,R2*%
X188490000Y-72750000D03*
X188490000Y-74400000D03*
%TD*%
%TO.C,RF1*%
X141600000Y-53350000D03*
X141600000Y-55000000D03*
%TD*%
D13*
%TO.C,R4*%
X197250000Y-44000000D03*
X198900000Y-44000000D03*
%TD*%
D16*
%TO.C,SW1*%
X169550000Y-41900000D03*
X169550000Y-49900000D03*
X165050000Y-41900000D03*
X165050000Y-49900000D03*
%TD*%
D24*
%TO.C,C15*%
X141600000Y-61175000D03*
X141600000Y-59625000D03*
%TD*%
D14*
%TO.C,RA1*%
X150400000Y-53375000D03*
X150400000Y-55025000D03*
%TD*%
D26*
%TO.C,D1*%
X158400000Y-49700000D03*
X160275000Y-49700000D03*
%TD*%
D20*
%TO.C,R26*%
X156550000Y-57700000D03*
X154900000Y-57700000D03*
%TD*%
D24*
%TO.C,C8*%
X216400000Y-52850000D03*
X216400000Y-51300000D03*
%TD*%
D14*
%TO.C,RB1*%
X148700000Y-53375000D03*
X148700000Y-55025000D03*
%TD*%
D13*
%TO.C,R12*%
X197250000Y-28000000D03*
X198900000Y-28000000D03*
%TD*%
D27*
%TO.C,U2*%
X194450000Y-53850000D03*
X195400000Y-53850000D03*
X196350000Y-53850000D03*
X196350000Y-51150000D03*
X195400000Y-51150000D03*
X194450000Y-51150000D03*
%TD*%
D20*
%TO.C,R31*%
X156500000Y-50000000D03*
X154850000Y-50000000D03*
%TD*%
D13*
%TO.C,R25*%
X188600000Y-39300000D03*
X190250000Y-39300000D03*
%TD*%
D19*
%TO.C,C11*%
X194750000Y-67000000D03*
X196300000Y-67000000D03*
%TD*%
D28*
%TO.C,J11*%
X193700000Y-73180000D03*
X194500000Y-73180000D03*
D29*
X195650000Y-73180000D03*
X196650000Y-73180000D03*
X197150000Y-73180000D03*
X198150000Y-73180000D03*
D28*
X199300000Y-73180000D03*
X200100000Y-73180000D03*
X200100000Y-73180000D03*
X199300000Y-73180000D03*
D29*
X198650000Y-73180000D03*
X197650000Y-73180000D03*
X196150000Y-73180000D03*
X195150000Y-73180000D03*
D28*
X194500000Y-73180000D03*
X193700000Y-73180000D03*
%TD*%
D19*
%TO.C,C12*%
X197350000Y-46000000D03*
X198900000Y-46000000D03*
%TD*%
D30*
%TO.C,Q1*%
X197125000Y-35237500D03*
X199025000Y-35237500D03*
X198075000Y-33362500D03*
%TD*%
D20*
%TO.C,R5*%
X196350000Y-65300000D03*
X194700000Y-65300000D03*
%TD*%
D24*
%TO.C,C22*%
X174800000Y-44875000D03*
X174800000Y-43325000D03*
%TD*%
D21*
%TO.C,C20*%
X158500000Y-60050000D03*
X158500000Y-61600000D03*
%TD*%
D24*
%TO.C,C14*%
X143300000Y-61175000D03*
X143300000Y-59625000D03*
%TD*%
%TO.C,C9*%
X211000000Y-52775000D03*
X211000000Y-51225000D03*
%TD*%
D13*
%TO.C,R13*%
X197250000Y-29700000D03*
X198900000Y-29700000D03*
%TD*%
D25*
%TO.C,R9*%
X146700000Y-61225000D03*
X146700000Y-59575000D03*
%TD*%
%TO.C,R1*%
X190290000Y-74400000D03*
X190290000Y-72750000D03*
%TD*%
D13*
%TO.C,R18*%
X171875000Y-78400000D03*
X173525000Y-78400000D03*
%TD*%
D31*
%TO.C,C16*%
X198825000Y-31400000D03*
X197275000Y-31400000D03*
%TD*%
D14*
%TO.C,RE1*%
X143300000Y-53375000D03*
X143300000Y-55025000D03*
%TD*%
D13*
%TO.C,R17*%
X165875000Y-78400000D03*
X167525000Y-78400000D03*
%TD*%
D32*
%TO.C,U4*%
X210350000Y-61900000D03*
X210350000Y-59600000D03*
D33*
X204050000Y-59600000D03*
D32*
X210350000Y-57300000D03*
%TD*%
D25*
%TO.C,R10*%
X148400000Y-61225000D03*
X148400000Y-59575000D03*
%TD*%
D13*
%TO.C,R3*%
X197250000Y-42300000D03*
X198900000Y-42300000D03*
%TD*%
D31*
%TO.C,C2*%
X185575000Y-58600000D03*
X184025000Y-58600000D03*
%TD*%
%TO.C,C1*%
X185575000Y-60300000D03*
X184025000Y-60300000D03*
%TD*%
D34*
%TO.C,Y1*%
X162000000Y-61600000D03*
X162000000Y-56100000D03*
%TD*%
D25*
%TO.C,R11*%
X150100000Y-61225000D03*
X150100000Y-59575000D03*
%TD*%
D13*
%TO.C,R23*%
X156600000Y-39500000D03*
X158250000Y-39500000D03*
%TD*%
D31*
%TO.C,C13*%
X200875000Y-59000000D03*
X199325000Y-59000000D03*
%TD*%
D24*
%TO.C,C7*%
X214700000Y-52850000D03*
X214700000Y-51300000D03*
%TD*%
D14*
%TO.C,RG1*%
X139900000Y-53350000D03*
X139900000Y-55000000D03*
%TD*%
%TO.C,RD1*%
X145000000Y-53375000D03*
X145000000Y-55025000D03*
%TD*%
D13*
%TO.C,R19*%
X177875000Y-78400000D03*
X179525000Y-78400000D03*
%TD*%
D20*
%TO.C,R32*%
X156500000Y-51700000D03*
X154850000Y-51700000D03*
%TD*%
D19*
%TO.C,C17*%
X197300000Y-38900000D03*
X198850000Y-38900000D03*
%TD*%
D25*
%TO.C,R8*%
X145000000Y-61225000D03*
X145000000Y-59575000D03*
%TD*%
D13*
%TO.C,R22*%
X156600000Y-30400000D03*
X158250000Y-30400000D03*
%TD*%
M02*
