%TF.GenerationSoftware,KiCad,Pcbnew,8.0.8*%
%TF.CreationDate,2025-02-18T19:17:03-06:00*%
%TF.ProjectId,VW_ServMode_4taGen,56575f53-6572-4764-9d6f-64655f347461,rev?*%
%TF.SameCoordinates,Original*%
%TF.FileFunction,Legend,Bot*%
%TF.FilePolarity,Positive*%
%FSLAX46Y46*%
G04 Gerber Fmt 4.6, Leading zero omitted, Abs format (unit mm)*
G04 Created by KiCad (PCBNEW 8.0.8) date 2025-02-18 19:17:03*
%MOMM*%
%LPD*%
G01*
G04 APERTURE LIST*
%ADD10C,0.150000*%
%ADD11C,0.120000*%
G04 APERTURE END LIST*
D10*
X204033332Y-37607200D02*
X203890475Y-37654819D01*
X203890475Y-37654819D02*
X203652380Y-37654819D01*
X203652380Y-37654819D02*
X203557142Y-37607200D01*
X203557142Y-37607200D02*
X203509523Y-37559580D01*
X203509523Y-37559580D02*
X203461904Y-37464342D01*
X203461904Y-37464342D02*
X203461904Y-37369104D01*
X203461904Y-37369104D02*
X203509523Y-37273866D01*
X203509523Y-37273866D02*
X203557142Y-37226247D01*
X203557142Y-37226247D02*
X203652380Y-37178628D01*
X203652380Y-37178628D02*
X203842856Y-37131009D01*
X203842856Y-37131009D02*
X203938094Y-37083390D01*
X203938094Y-37083390D02*
X203985713Y-37035771D01*
X203985713Y-37035771D02*
X204033332Y-36940533D01*
X204033332Y-36940533D02*
X204033332Y-36845295D01*
X204033332Y-36845295D02*
X203985713Y-36750057D01*
X203985713Y-36750057D02*
X203938094Y-36702438D01*
X203938094Y-36702438D02*
X203842856Y-36654819D01*
X203842856Y-36654819D02*
X203604761Y-36654819D01*
X203604761Y-36654819D02*
X203461904Y-36702438D01*
X203128570Y-36654819D02*
X202890475Y-37654819D01*
X202890475Y-37654819D02*
X202699999Y-36940533D01*
X202699999Y-36940533D02*
X202509523Y-37654819D01*
X202509523Y-37654819D02*
X202271428Y-36654819D01*
X201461904Y-36988152D02*
X201461904Y-37654819D01*
X201699999Y-36607200D02*
X201938094Y-37321485D01*
X201938094Y-37321485D02*
X201319047Y-37321485D01*
X136985714Y-68231009D02*
X136842857Y-68278628D01*
X136842857Y-68278628D02*
X136795238Y-68326247D01*
X136795238Y-68326247D02*
X136747619Y-68421485D01*
X136747619Y-68421485D02*
X136747619Y-68564342D01*
X136747619Y-68564342D02*
X136795238Y-68659580D01*
X136795238Y-68659580D02*
X136842857Y-68707200D01*
X136842857Y-68707200D02*
X136938095Y-68754819D01*
X136938095Y-68754819D02*
X137319047Y-68754819D01*
X137319047Y-68754819D02*
X137319047Y-67754819D01*
X137319047Y-67754819D02*
X136985714Y-67754819D01*
X136985714Y-67754819D02*
X136890476Y-67802438D01*
X136890476Y-67802438D02*
X136842857Y-67850057D01*
X136842857Y-67850057D02*
X136795238Y-67945295D01*
X136795238Y-67945295D02*
X136795238Y-68040533D01*
X136795238Y-68040533D02*
X136842857Y-68135771D01*
X136842857Y-68135771D02*
X136890476Y-68183390D01*
X136890476Y-68183390D02*
X136985714Y-68231009D01*
X136985714Y-68231009D02*
X137319047Y-68231009D01*
X136461904Y-67754819D02*
X135890476Y-67754819D01*
X136176190Y-68754819D02*
X136176190Y-67754819D01*
X135033333Y-68754819D02*
X135604761Y-68754819D01*
X135319047Y-68754819D02*
X135319047Y-67754819D01*
X135319047Y-67754819D02*
X135414285Y-67897676D01*
X135414285Y-67897676D02*
X135509523Y-67992914D01*
X135509523Y-67992914D02*
X135604761Y-68040533D01*
D11*
%TO.C,SW4*%
X194300000Y-39600000D02*
X194300000Y-33600000D01*
X196250000Y-33500000D02*
X198850000Y-33500000D01*
X196250000Y-39700000D02*
X198850000Y-39700000D01*
X200800000Y-39500000D02*
X200800000Y-33700000D01*
X200850000Y-40700000D02*
X200850000Y-41700000D01*
X200850000Y-41700000D02*
X199850000Y-41700000D01*
%TO.C,BT1*%
X132550000Y-50300000D02*
X130050000Y-50300000D01*
X135160000Y-45880000D02*
X135160000Y-52860000D01*
X135160000Y-66740000D02*
X135160000Y-59740000D01*
X212440000Y-45860000D02*
X135160000Y-45860000D01*
X212440000Y-52860000D02*
X212440000Y-45860000D01*
X212440000Y-59740000D02*
X212440000Y-66740000D01*
X212440000Y-66740000D02*
X135160000Y-66740000D01*
X215050000Y-50300000D02*
X217550000Y-50300000D01*
X216300000Y-49050000D02*
X216300000Y-51550000D01*
X216800000Y-52860000D02*
X212440000Y-52860000D01*
%TD*%
M02*
