%TF.GenerationSoftware,KiCad,Pcbnew,8.0.8*%
%TF.CreationDate,2025-02-18T19:17:03-06:00*%
%TF.ProjectId,VW_ServMode_4taGen,56575f53-6572-4764-9d6f-64655f347461,rev?*%
%TF.SameCoordinates,Original*%
%TF.FileFunction,Soldermask,Top*%
%TF.FilePolarity,Negative*%
%FSLAX46Y46*%
G04 Gerber Fmt 4.6, Leading zero omitted, Abs format (unit mm)*
G04 Created by KiCad (PCBNEW 8.0.8) date 2025-02-18 19:17:03*
%MOMM*%
%LPD*%
G01*
G04 APERTURE LIST*
G04 Aperture macros list*
%AMRoundRect*
0 Rectangle with rounded corners*
0 $1 Rounding radius*
0 $2 $3 $4 $5 $6 $7 $8 $9 X,Y pos of 4 corners*
0 Add a 4 corners polygon primitive as box body*
4,1,4,$2,$3,$4,$5,$6,$7,$8,$9,$2,$3,0*
0 Add four circle primitives for the rounded corners*
1,1,$1+$1,$2,$3*
1,1,$1+$1,$4,$5*
1,1,$1+$1,$6,$7*
1,1,$1+$1,$8,$9*
0 Add four rect primitives between the rounded corners*
20,1,$1+$1,$2,$3,$4,$5,0*
20,1,$1+$1,$4,$5,$6,$7,0*
20,1,$1+$1,$6,$7,$8,$9,0*
20,1,$1+$1,$8,$9,$2,$3,0*%
G04 Aperture macros list end*
%ADD10RoundRect,0.162500X-0.617500X-0.162500X0.617500X-0.162500X0.617500X0.162500X-0.617500X0.162500X0*%
%ADD11RoundRect,0.150000X0.150000X-0.825000X0.150000X0.825000X-0.150000X0.825000X-0.150000X-0.825000X0*%
%ADD12R,3.000000X2.290000*%
%ADD13R,1.800000X1.800000*%
%ADD14C,1.800000*%
%ADD15RoundRect,0.200000X-0.200000X-0.275000X0.200000X-0.275000X0.200000X0.275000X-0.200000X0.275000X0*%
%ADD16RoundRect,0.200000X-0.275000X0.200000X-0.275000X-0.200000X0.275000X-0.200000X0.275000X0.200000X0*%
%ADD17C,0.900000*%
%ADD18RoundRect,0.102000X-0.350000X-0.800000X0.350000X-0.800000X0.350000X0.800000X-0.350000X0.800000X0*%
%ADD19RoundRect,0.102000X-0.700000X-0.800000X0.700000X-0.800000X0.700000X0.800000X-0.700000X0.800000X0*%
%ADD20RoundRect,0.102000X-0.700000X-1.100000X0.700000X-1.100000X0.700000X1.100000X-0.700000X1.100000X0*%
%ADD21RoundRect,0.102000X-0.900000X-0.700000X0.900000X-0.700000X0.900000X0.700000X-0.900000X0.700000X0*%
%ADD22RoundRect,0.225000X-0.225000X-0.250000X0.225000X-0.250000X0.225000X0.250000X-0.225000X0.250000X0*%
%ADD23RoundRect,0.200000X0.200000X0.275000X-0.200000X0.275000X-0.200000X-0.275000X0.200000X-0.275000X0*%
%ADD24R,1.700000X1.700000*%
%ADD25O,1.700000X1.700000*%
%ADD26RoundRect,0.225000X-0.250000X0.225000X-0.250000X-0.225000X0.250000X-0.225000X0.250000X0.225000X0*%
%ADD27RoundRect,0.075000X-0.521491X0.415425X0.415425X-0.521491X0.521491X-0.415425X-0.415425X0.521491X0*%
%ADD28RoundRect,0.075000X-0.521491X-0.415425X-0.415425X-0.521491X0.521491X0.415425X0.415425X0.521491X0*%
%ADD29RoundRect,0.225000X0.250000X-0.225000X0.250000X0.225000X-0.250000X0.225000X-0.250000X-0.225000X0*%
%ADD30RoundRect,0.200000X0.275000X-0.200000X0.275000X0.200000X-0.275000X0.200000X-0.275000X-0.200000X0*%
%ADD31RoundRect,0.250000X0.600000X-0.600000X0.600000X0.600000X-0.600000X0.600000X-0.600000X-0.600000X0*%
%ADD32C,1.700000*%
%ADD33C,3.200000*%
%ADD34R,1.400000X1.600000*%
%ADD35R,1.524000X2.524000*%
%ADD36O,1.524000X2.524000*%
%ADD37RoundRect,0.243750X-0.243750X-0.456250X0.243750X-0.456250X0.243750X0.456250X-0.243750X0.456250X0*%
%ADD38RoundRect,0.162500X0.162500X-0.617500X0.162500X0.617500X-0.162500X0.617500X-0.162500X-0.617500X0*%
%ADD39R,2.032000X2.032000*%
%ADD40C,2.032000*%
%ADD41C,0.650000*%
%ADD42R,0.600000X1.240000*%
%ADD43R,0.300000X1.240000*%
%ADD44O,1.000000X2.100000*%
%ADD45O,1.000000X1.800000*%
%ADD46RoundRect,0.150000X0.150000X-0.587500X0.150000X0.587500X-0.150000X0.587500X-0.150000X-0.587500X0*%
%ADD47RoundRect,0.225000X0.225000X0.250000X-0.225000X0.250000X-0.225000X-0.250000X0.225000X-0.250000X0*%
%ADD48RoundRect,0.375000X0.625000X0.375000X-0.625000X0.375000X-0.625000X-0.375000X0.625000X-0.375000X0*%
%ADD49RoundRect,0.500000X0.500000X1.400000X-0.500000X1.400000X-0.500000X-1.400000X0.500000X-1.400000X0*%
%ADD50R,1.200000X3.500000*%
%ADD51C,2.390000*%
%ADD52C,3.450000*%
G04 APERTURE END LIST*
D10*
%TO.C,U3*%
X203950000Y-50450000D03*
X203950000Y-51400000D03*
X203950000Y-52350000D03*
X201250000Y-52350000D03*
X201250000Y-51400000D03*
X201250000Y-50450000D03*
%TD*%
D11*
%TO.C,U1*%
X192845000Y-62205000D03*
X194115000Y-62205000D03*
X195385000Y-62205000D03*
X196655000Y-62205000D03*
X196655000Y-57255000D03*
X195385000Y-57255000D03*
X194115000Y-57255000D03*
X192845000Y-57255000D03*
D12*
X194750000Y-59730000D03*
%TD*%
D13*
%TO.C,D5*%
X188600000Y-43800000D03*
D14*
X191140000Y-43800000D03*
%TD*%
D15*
%TO.C,R21*%
X158400000Y-51700000D03*
X160050000Y-51700000D03*
%TD*%
D16*
%TO.C,RC1*%
X147000000Y-53375000D03*
X147000000Y-55025000D03*
%TD*%
D17*
%TO.C,J10*%
X144070000Y-75200000D03*
X152070000Y-75200000D03*
D18*
X151270000Y-64700000D03*
X150170000Y-64700000D03*
X149070000Y-64700000D03*
X147970000Y-64700000D03*
X146870000Y-64700000D03*
X145770000Y-64700000D03*
X144670000Y-64700000D03*
X143570000Y-64700000D03*
X142470000Y-64700000D03*
D19*
X141170000Y-65300000D03*
D20*
X141170000Y-74800000D03*
X156870000Y-74800000D03*
D21*
X155970000Y-65200000D03*
%TD*%
D15*
%TO.C,R27*%
X154900000Y-59400000D03*
X156550000Y-59400000D03*
%TD*%
D22*
%TO.C,C18*%
X154950000Y-61100000D03*
X156500000Y-61100000D03*
%TD*%
D23*
%TO.C,R16*%
X161425000Y-78400000D03*
X159775000Y-78400000D03*
%TD*%
D15*
%TO.C,R14*%
X197250000Y-37200000D03*
X198900000Y-37200000D03*
%TD*%
%TO.C,R30*%
X204050000Y-39300000D03*
X205700000Y-39300000D03*
%TD*%
D24*
%TO.C,J2*%
X208300000Y-76980000D03*
D25*
X208300000Y-74440000D03*
X208300000Y-71900000D03*
X208300000Y-69360000D03*
%TD*%
D15*
%TO.C,R20*%
X183775000Y-78400000D03*
X185425000Y-78400000D03*
%TD*%
D22*
%TO.C,C3*%
X204100000Y-28900000D03*
X205650000Y-28900000D03*
%TD*%
D15*
%TO.C,R24*%
X188600000Y-30300000D03*
X190250000Y-30300000D03*
%TD*%
D24*
%TO.C,J3*%
X215700000Y-65640000D03*
D25*
X215700000Y-63100000D03*
%TD*%
D24*
%TO.C,J5*%
X132800000Y-50140000D03*
D25*
X132800000Y-47600000D03*
%TD*%
D26*
%TO.C,C6*%
X138200000Y-53400000D03*
X138200000Y-54950000D03*
%TD*%
D13*
%TO.C,D4*%
X188600000Y-34800000D03*
D14*
X191140000Y-34800000D03*
%TD*%
D15*
%TO.C,R15*%
X197250000Y-40600000D03*
X198900000Y-40600000D03*
%TD*%
D27*
%TO.C,U5*%
X172801212Y-54112124D03*
X172447658Y-54465678D03*
X172094105Y-54819231D03*
X171740551Y-55172785D03*
X171386998Y-55526338D03*
X171033445Y-55879891D03*
X170679891Y-56233445D03*
X170326338Y-56586998D03*
X169972785Y-56940551D03*
X169619231Y-57294105D03*
X169265678Y-57647658D03*
X168912124Y-58001212D03*
D28*
X168912124Y-59998788D03*
X169265678Y-60352342D03*
X169619231Y-60705895D03*
X169972785Y-61059449D03*
X170326338Y-61413002D03*
X170679891Y-61766555D03*
X171033445Y-62120109D03*
X171386998Y-62473662D03*
X171740551Y-62827215D03*
X172094105Y-63180769D03*
X172447658Y-63534322D03*
X172801212Y-63887876D03*
D27*
X174798788Y-63887876D03*
X175152342Y-63534322D03*
X175505895Y-63180769D03*
X175859449Y-62827215D03*
X176213002Y-62473662D03*
X176566555Y-62120109D03*
X176920109Y-61766555D03*
X177273662Y-61413002D03*
X177627215Y-61059449D03*
X177980769Y-60705895D03*
X178334322Y-60352342D03*
X178687876Y-59998788D03*
D28*
X178687876Y-58001212D03*
X178334322Y-57647658D03*
X177980769Y-57294105D03*
X177627215Y-56940551D03*
X177273662Y-56586998D03*
X176920109Y-56233445D03*
X176566555Y-55879891D03*
X176213002Y-55526338D03*
X175859449Y-55172785D03*
X175505895Y-54819231D03*
X175152342Y-54465678D03*
X174798788Y-54112124D03*
%TD*%
D24*
%TO.C,J1*%
X135200000Y-42140000D03*
D25*
X132660000Y-42140000D03*
X135200000Y-39600000D03*
X132660000Y-39600000D03*
X135200000Y-37060000D03*
X132660000Y-37060000D03*
%TD*%
D16*
%TO.C,R28*%
X172800000Y-46875000D03*
X172800000Y-48525000D03*
%TD*%
D29*
%TO.C,C19*%
X158500000Y-57650000D03*
X158500000Y-56100000D03*
%TD*%
D30*
%TO.C,R29*%
X174800000Y-48525000D03*
X174800000Y-46875000D03*
%TD*%
D15*
%TO.C,R7*%
X197300000Y-47700000D03*
X198950000Y-47700000D03*
%TD*%
D26*
%TO.C,C5*%
X136400000Y-53400000D03*
X136400000Y-54950000D03*
%TD*%
D31*
%TO.C,J12*%
X170000000Y-38100000D03*
D32*
X170000000Y-35560000D03*
X172540000Y-38100000D03*
X172540000Y-35560000D03*
X175080000Y-38100000D03*
X175080000Y-35560000D03*
X177620000Y-38100000D03*
X177620000Y-35560000D03*
%TD*%
D22*
%TO.C,C4*%
X204100000Y-30600000D03*
X205650000Y-30600000D03*
%TD*%
D33*
%TO.C,H3*%
X133800000Y-74700000D03*
%TD*%
D34*
%TO.C,SW2*%
X178050000Y-49900000D03*
X178050000Y-41900000D03*
X182550000Y-49900000D03*
X182550000Y-41900000D03*
%TD*%
D29*
%TO.C,C10*%
X212700000Y-52775000D03*
X212700000Y-51225000D03*
%TD*%
%TO.C,C21*%
X172800000Y-44875000D03*
X172800000Y-43325000D03*
%TD*%
D23*
%TO.C,R6*%
X200925000Y-57300000D03*
X199275000Y-57300000D03*
%TD*%
D16*
%TO.C,R2*%
X188490000Y-72750000D03*
X188490000Y-74400000D03*
%TD*%
D24*
%TO.C,J6*%
X133300000Y-64900000D03*
D25*
X133300000Y-62360000D03*
%TD*%
D16*
%TO.C,RF1*%
X141600000Y-53350000D03*
X141600000Y-55000000D03*
%TD*%
D15*
%TO.C,R4*%
X197250000Y-44000000D03*
X198900000Y-44000000D03*
%TD*%
D34*
%TO.C,SW1*%
X169550000Y-41900000D03*
X169550000Y-49900000D03*
X165050000Y-41900000D03*
X165050000Y-49900000D03*
%TD*%
D29*
%TO.C,C15*%
X141600000Y-61175000D03*
X141600000Y-59625000D03*
%TD*%
D35*
%TO.C,AFF1*%
X139520000Y-43800000D03*
D36*
X142060000Y-43800000D03*
X144600000Y-43800000D03*
X147140000Y-43800000D03*
X149680000Y-43800000D03*
X149680000Y-28560000D03*
X147140000Y-28560000D03*
X144600000Y-28560000D03*
X142060000Y-28560000D03*
X139520000Y-28560000D03*
%TD*%
D16*
%TO.C,RA1*%
X150400000Y-53375000D03*
X150400000Y-55025000D03*
%TD*%
D37*
%TO.C,D1*%
X158400000Y-49700000D03*
X160275000Y-49700000D03*
%TD*%
D23*
%TO.C,R26*%
X156550000Y-57700000D03*
X154900000Y-57700000D03*
%TD*%
D29*
%TO.C,C8*%
X216400000Y-52850000D03*
X216400000Y-51300000D03*
%TD*%
D16*
%TO.C,RB1*%
X148700000Y-53375000D03*
X148700000Y-55025000D03*
%TD*%
D15*
%TO.C,R12*%
X197250000Y-28000000D03*
X198900000Y-28000000D03*
%TD*%
D38*
%TO.C,U2*%
X194450000Y-53850000D03*
X195400000Y-53850000D03*
X196350000Y-53850000D03*
X196350000Y-51150000D03*
X195400000Y-51150000D03*
X194450000Y-51150000D03*
%TD*%
D23*
%TO.C,R31*%
X156500000Y-50000000D03*
X154850000Y-50000000D03*
%TD*%
D15*
%TO.C,R25*%
X188600000Y-39300000D03*
X190250000Y-39300000D03*
%TD*%
D22*
%TO.C,C11*%
X194750000Y-67000000D03*
X196300000Y-67000000D03*
%TD*%
D13*
%TO.C,D2*%
X156600000Y-34800000D03*
D14*
X159140000Y-34800000D03*
%TD*%
D39*
%TO.C,BAR1*%
X185260000Y-68200000D03*
D40*
X182720000Y-68200000D03*
X180180000Y-68200000D03*
X177640000Y-68200000D03*
X175100000Y-68200000D03*
X172560000Y-68200000D03*
X170020000Y-68200000D03*
X167480000Y-68200000D03*
X164940000Y-68200000D03*
X162400000Y-68200000D03*
X162400000Y-75820000D03*
X164940000Y-75820000D03*
X167480000Y-75820000D03*
X170020000Y-75820000D03*
X172560000Y-75820000D03*
X175100000Y-75820000D03*
X177640000Y-75820000D03*
X180180000Y-75820000D03*
X182720000Y-75820000D03*
X185260000Y-75820000D03*
%TD*%
D41*
%TO.C,J11*%
X194010000Y-74300000D03*
X199790000Y-74300000D03*
D42*
X193700000Y-73180000D03*
X194500000Y-73180000D03*
D43*
X195650000Y-73180000D03*
X196650000Y-73180000D03*
X197150000Y-73180000D03*
X198150000Y-73180000D03*
D42*
X199300000Y-73180000D03*
X200100000Y-73180000D03*
X200100000Y-73180000D03*
X199300000Y-73180000D03*
D43*
X198650000Y-73180000D03*
X197650000Y-73180000D03*
X196150000Y-73180000D03*
X195150000Y-73180000D03*
D42*
X194500000Y-73180000D03*
X193700000Y-73180000D03*
D44*
X192580000Y-73780000D03*
D45*
X192580000Y-77980000D03*
D44*
X201220000Y-73780000D03*
D45*
X201220000Y-77980000D03*
%TD*%
D22*
%TO.C,C12*%
X197350000Y-46000000D03*
X198900000Y-46000000D03*
%TD*%
D24*
%TO.C,J7*%
X215800000Y-46740000D03*
D25*
X215800000Y-44200000D03*
%TD*%
D46*
%TO.C,Q1*%
X197125000Y-35237500D03*
X199025000Y-35237500D03*
X198075000Y-33362500D03*
%TD*%
D23*
%TO.C,R5*%
X196350000Y-65300000D03*
X194700000Y-65300000D03*
%TD*%
D29*
%TO.C,C22*%
X174800000Y-44875000D03*
X174800000Y-43325000D03*
%TD*%
D13*
%TO.C,D3*%
X156600000Y-43800000D03*
D14*
X159140000Y-43800000D03*
%TD*%
D26*
%TO.C,C20*%
X158500000Y-60050000D03*
X158500000Y-61600000D03*
%TD*%
D29*
%TO.C,C14*%
X143300000Y-61175000D03*
X143300000Y-59625000D03*
%TD*%
%TO.C,C9*%
X211000000Y-52775000D03*
X211000000Y-51225000D03*
%TD*%
D15*
%TO.C,R13*%
X197250000Y-29700000D03*
X198900000Y-29700000D03*
%TD*%
D13*
%TO.C,D6*%
X203600000Y-34800000D03*
D14*
X206140000Y-34800000D03*
%TD*%
D30*
%TO.C,R9*%
X146700000Y-61225000D03*
X146700000Y-59575000D03*
%TD*%
D33*
%TO.C,H4*%
X3475000Y-3475000D03*
%TD*%
D30*
%TO.C,R1*%
X190290000Y-74400000D03*
X190290000Y-72750000D03*
%TD*%
D15*
%TO.C,R18*%
X171875000Y-78400000D03*
X173525000Y-78400000D03*
%TD*%
D47*
%TO.C,C16*%
X198825000Y-31400000D03*
X197275000Y-31400000D03*
%TD*%
D16*
%TO.C,RE1*%
X143300000Y-53375000D03*
X143300000Y-55025000D03*
%TD*%
D13*
%TO.C,D7*%
X203600000Y-43800000D03*
D14*
X206140000Y-43800000D03*
%TD*%
D15*
%TO.C,R17*%
X165875000Y-78400000D03*
X167525000Y-78400000D03*
%TD*%
D48*
%TO.C,U4*%
X210350000Y-61900000D03*
X210350000Y-59600000D03*
D49*
X204050000Y-59600000D03*
D48*
X210350000Y-57300000D03*
%TD*%
D30*
%TO.C,R10*%
X148400000Y-61225000D03*
X148400000Y-59575000D03*
%TD*%
D15*
%TO.C,R3*%
X197250000Y-42300000D03*
X198900000Y-42300000D03*
%TD*%
D47*
%TO.C,C2*%
X185575000Y-58600000D03*
X184025000Y-58600000D03*
%TD*%
D33*
%TO.C,H2*%
X213800000Y-29700000D03*
%TD*%
D47*
%TO.C,C1*%
X185575000Y-60300000D03*
X184025000Y-60300000D03*
%TD*%
D50*
%TO.C,Y1*%
X162000000Y-61600000D03*
X162000000Y-56100000D03*
%TD*%
D30*
%TO.C,R11*%
X150100000Y-61225000D03*
X150100000Y-59575000D03*
%TD*%
D15*
%TO.C,R23*%
X156600000Y-39500000D03*
X158250000Y-39500000D03*
%TD*%
D47*
%TO.C,C13*%
X200875000Y-59000000D03*
X199325000Y-59000000D03*
%TD*%
D29*
%TO.C,C7*%
X214700000Y-52850000D03*
X214700000Y-51300000D03*
%TD*%
D16*
%TO.C,RG1*%
X139900000Y-53350000D03*
X139900000Y-55000000D03*
%TD*%
D33*
%TO.C,H1*%
X133800000Y-29700000D03*
%TD*%
D16*
%TO.C,RD1*%
X145000000Y-53375000D03*
X145000000Y-55025000D03*
%TD*%
D24*
%TO.C,J4*%
X212860000Y-35600000D03*
D25*
X215400000Y-35600000D03*
%TD*%
D15*
%TO.C,R19*%
X177875000Y-78400000D03*
X179525000Y-78400000D03*
%TD*%
D23*
%TO.C,R32*%
X156500000Y-51700000D03*
X154850000Y-51700000D03*
%TD*%
D33*
%TO.C,H4*%
X213800000Y-74700000D03*
%TD*%
D22*
%TO.C,C17*%
X197300000Y-38900000D03*
X198850000Y-38900000D03*
%TD*%
D30*
%TO.C,R8*%
X145000000Y-61225000D03*
X145000000Y-59575000D03*
%TD*%
D15*
%TO.C,R22*%
X156600000Y-30400000D03*
X158250000Y-30400000D03*
%TD*%
D51*
%TO.C,BT1*%
X209730000Y-48300000D03*
D52*
X201400000Y-64300000D03*
X146200000Y-48300000D03*
%TD*%
M02*
