M48
; DRILL file {KiCad 8.0.8} date 2025-02-18T19:17:08-0600
; FORMAT={-:-/ absolute / inch / decimal}
; #@! TF.CreationDate,2025-02-18T19:17:08-06:00
; #@! TF.GenerationSoftware,Kicad,Pcbnew,8.0.8
; #@! TF.FileFunction,Plated,1,2,PTH
FMAT,2
INCH
; #@! TA.AperFunction,Plated,PTH,ViaDrill
T1C0.0118
; #@! TA.AperFunction,Plated,PTH,ComponentDrill
T2C0.0236
; #@! TA.AperFunction,Plated,PTH,ComponentDrill
T3C0.0315
; #@! TA.AperFunction,Plated,PTH,ComponentDrill
T4C0.0354
; #@! TA.AperFunction,Plated,PTH,ComponentDrill
T5C0.0360
; #@! TA.AperFunction,Plated,PTH,ComponentDrill
T6C0.0394
%
G90
G05
T1
X5.374Y-1.3071
X5.3819Y-1.9685
X5.4449Y-2.4646
X5.5079Y-2.2047
X5.5197Y-2.378
X5.5748Y-2.2047
X5.5866Y-1.4685
X5.6417Y-2.2047
X5.7028Y-2.4547
X5.7087Y-2.2047
X5.7874Y-2.2047
X5.815Y-2.4646
X5.8425Y-1.4646
X5.8543Y-2.2047
X5.9094Y-2.4488
X5.9213Y-2.2047
X6.0Y-2.5
X6.0236Y-1.2559
X6.0236Y-2.3622
X6.0315Y-1.8898
X6.0354Y-2.0472
X6.0531Y-2.0118
X6.1024Y-1.8898
X6.126Y-2.4843
X6.1831Y-1.9114
X6.2402Y-2.4724
X6.2441Y-1.8819
X6.2441Y-2.1378
X6.3543Y-2.6063
X6.3976Y-1.1024
X6.4646Y-2.4882
X6.4685Y-2.0472
X6.5Y-2.2795
X6.5079Y-2.3543
X6.5118Y-2.8701
X6.5236Y-1.4803
X6.5354Y-2.062
X6.5472Y-2.3268
X6.5551Y-2.2707
X6.5709Y-2.1772
X6.5906Y-2.2559
X6.5984Y-1.7559
X6.6339Y-2.1732
X6.6969Y-3.0866
X6.7421Y-2.3031
X6.7677Y-2.3386
X6.7795Y-2.5748
X6.7913Y-2.878
X6.7953Y-2.0276
X6.8031Y-2.4291
X6.8058Y-2.3674
X6.8317Y-2.2402
X6.8325Y-2.2731
X6.8504Y-2.3701
X6.8543Y-2.185
X6.8583Y-2.5709
X6.878Y-1.6142
X6.878Y-2.0276
X6.878Y-2.3465
X6.9291Y-1.7047
X6.9393Y-2.3448
X6.9409Y-2.0394
X6.9449Y-3.0748
X6.9567Y-2.0827
X6.9764Y-2.3346
X7.0079Y-2.0581
X7.0276Y-1.7717
X7.0394Y-2.878
X7.0866Y-2.1378
X7.0958Y-2.206
X7.1378Y-1.6732
X7.1654Y-3.0591
X7.1929Y-2.0984
X7.2087Y-2.3819
X7.2165Y-2.0709
X7.2441Y-1.2677
X7.2441Y-1.4764
X7.3031Y-2.4291
X7.4488Y-2.3465
X7.5079Y-1.9291
X7.5276Y-2.0709
X7.5472Y-2.8268
X7.5827Y-2.8268
X7.5923Y-2.5197
X7.6102Y-2.0709
X7.6358Y-2.7933
X7.6555Y-1.9173
X7.6555Y-1.9449
X7.6575Y-2.815
X7.6929Y-2.5197
X7.7205Y-1.8937
X7.7559Y-3.0433
X7.7756Y-2.6772
X7.7756Y-2.7126
X7.7953Y-2.2559
X7.8346Y-1.4331
X7.8465Y-2.0433
X7.8465Y-2.7953
X7.8465Y-2.8268
X7.8661Y-2.3819
X7.8957Y-2.8327
X7.9016Y-1.185
X7.9173Y-2.811
X7.9409Y-1.5315
X8.0039Y-1.9213
X8.0984Y-1.498
X8.1181Y-2.5591
X8.1772Y-2.3465
X8.248Y-1.3307
X8.2598Y-2.563
X8.2835Y-1.563
X8.4409Y-1.9449
X8.4449Y-2.748
X8.4843Y-1.9449
T3
X5.4929Y-1.1244
X5.4929Y-1.7244
X5.5929Y-1.1244
X5.5929Y-1.7244
X5.6929Y-1.1244
X5.6929Y-1.7244
X5.7929Y-1.1244
X5.7929Y-1.7244
X5.8929Y-1.1244
X5.8929Y-1.7244
T4
X6.1654Y-1.3701
X6.1654Y-1.7244
X6.2654Y-1.3701
X6.2654Y-1.7244
X7.4252Y-1.3701
X7.4252Y-1.7244
X7.5252Y-1.3701
X7.5252Y-1.7244
X8.0157Y-1.3701
X8.0157Y-1.7244
X8.1157Y-1.3701
X8.1157Y-1.7244
T5
X6.3937Y-2.685
X6.3937Y-2.985
X6.4937Y-2.685
X6.4937Y-2.985
X6.5937Y-2.685
X6.5937Y-2.985
X6.6937Y-2.685
X6.6937Y-2.985
X6.7937Y-2.685
X6.7937Y-2.985
X6.8937Y-2.685
X6.8937Y-2.985
X6.9937Y-2.685
X6.9937Y-2.985
X7.0937Y-2.685
X7.0937Y-2.985
X7.1937Y-2.685
X7.1937Y-2.985
X7.2937Y-2.685
X7.2937Y-2.985
T6
X5.2228Y-1.4591
X5.2228Y-1.5591
X5.2228Y-1.6591
X5.2283Y-1.874
X5.2283Y-1.974
X5.248Y-2.4551
X5.248Y-2.5551
X5.3228Y-1.4591
X5.3228Y-1.5591
X5.3228Y-1.6591
X6.6929Y-1.4
X6.6929Y-1.5
X6.7929Y-1.4
X6.7929Y-1.5
X6.8929Y-1.4
X6.8929Y-1.5
X6.9929Y-1.4
X6.9929Y-1.5
X8.2008Y-2.7307
X8.2008Y-2.8307
X8.2008Y-2.9307
X8.2008Y-3.0307
X8.3803Y-1.4016
X8.4803Y-1.4016
X8.4921Y-2.4843
X8.4921Y-2.5843
X8.4961Y-1.7402
X8.4961Y-1.8402
T2
G00X7.5819Y-2.8831
M15
G01X7.5819Y-2.9264
M16
G05
G00X7.5819Y-3.0543
M15
G01X7.5819Y-3.0858
M16
G05
G00X7.922Y-2.8831
M15
G01X7.922Y-2.9264
M16
G05
G00X7.922Y-3.0543
M15
G01X7.922Y-3.0858
M16
G05
M30
